<svg width="40" height="40" viewBox="0 0 40 40" fill="none" xmlns="http://www.w3.org/2000/svg">
<g id="Property 1=Variant2">
<g id="Vector">
<path d="M33.4125 27.4555C31.4062 25 29.9898 23.75 29.9898 16.9805C29.9898 10.7813 26.8242 8.57266 24.2187 7.5C23.8726 7.35781 23.5469 7.03125 23.4414 6.67578C22.9844 5.12031 21.7031 3.75 20 3.75C18.2969 3.75 17.0148 5.12109 16.5625 6.67734C16.457 7.03672 16.1312 7.35781 15.7851 7.5C13.1766 8.57422 10.0141 10.775 10.0141 16.9805C10.0101 23.75 8.59374 25 6.58749 27.4555C5.75624 28.4727 6.48436 30 7.93827 30H32.0695C33.5156 30 34.2391 28.468 33.4125 27.4555ZM25 30V31.25C25 32.5761 24.4732 33.8479 23.5355 34.7855C22.5978 35.7232 21.3261 36.25 20 36.25C18.6739 36.25 17.4021 35.7232 16.4645 34.7855C15.5268 33.8479 15 32.5761 15 31.25V30" fill="#363A5F"/>
<path d="M25 30V31.25C25 32.5761 24.4732 33.8479 23.5355 34.7855C22.5978 35.7232 21.3261 36.25 20 36.25C18.6739 36.25 17.4021 35.7232 16.4645 34.7855C15.5268 33.8479 15 32.5761 15 31.25V30M33.4125 27.4555C31.4062 25 29.9898 23.75 29.9898 16.9805C29.9898 10.7813 26.8242 8.57266 24.2187 7.5C23.8726 7.35781 23.5469 7.03125 23.4414 6.67578C22.9844 5.12031 21.7031 3.75 20 3.75C18.2969 3.75 17.0148 5.12109 16.5625 6.67734C16.457 7.03672 16.1312 7.35781 15.7851 7.5C13.1766 8.57422 10.0141 10.775 10.0141 16.9805C10.0101 23.75 8.59374 25 6.58749 27.4555C5.75624 28.4727 6.48436 30 7.93827 30H32.0695C33.5156 30 34.2391 28.468 33.4125 27.4555Z" stroke="#363A5F" stroke-linecap="round" stroke-linejoin="round"/>
</g>
<rect x="0.5" y="0.5" width="39" height="39" rx="4.5" stroke="#363A5F"/>
</g>
</svg>
