<svg width="56" height="56" viewBox="0 0 56 56" fill="none" xmlns="http://www.w3.org/2000/svg">
<g id="devicon:facebook">
<path id="Vector" d="M51.0344 2.11313H4.97C3.3922 2.11313 2.11313 3.3922 2.11313 4.97V51.0344C2.11313 52.6122 3.3922 53.8913 4.97 53.8913H51.0344C52.6122 53.8913 53.8913 52.6122 53.8913 51.0344V4.97C53.8913 3.3922 52.6122 2.11313 51.0344 2.11313Z" fill="#3D5A98"/>
<path id="Vector_2" d="M37.835 53.8869V33.8363H44.5637L45.57 26.0225H37.835V21.035C37.835 18.7731 38.465 17.2288 41.7069 17.2288H45.8456V10.2288C43.8415 10.0199 41.8274 9.92058 39.8125 9.93126C33.8537 9.93126 29.75 13.5625 29.75 20.2606V26.0225H23.0212V33.8363H29.75V53.8869H37.835Z" fill="#F8F2F2"/>
</g>
</svg>
