<svg width="335" height="123" viewBox="0 0 335 123" fill="none" xmlns="http://www.w3.org/2000/svg">
<rect width="335" height="123" rx="15" fill="#E1E3F4"/>
<rect x="54" y="11" width="20" height="105" fill="#3D5A98"/>
<rect x="158" y="83" width="20" height="33" fill="#241A1A"/>
<rect x="210" y="96" width="20" height="20" fill="#E71010"/>
<rect x="262" y="90" width="20" height="26" fill="#1D9BF0"/>
<path d="M22.5195 112.122C21.875 112.122 21.3704 111.826 21.0059 111.233C20.6413 110.641 20.459 109.78 20.459 108.65C20.459 107.404 20.6494 106.465 21.0303 105.833C21.4144 105.198 21.9613 104.881 22.6709 104.881C24.0186 104.881 24.6924 106.077 24.6924 108.47C24.6924 109.661 24.502 110.568 24.1211 111.189C23.7402 111.811 23.2064 112.122 22.5195 112.122ZM22.6318 105.291C22.0947 105.291 21.6764 105.566 21.377 106.116C21.0775 106.666 20.9277 107.492 20.9277 108.592C20.9277 109.594 21.071 110.366 21.3574 110.906C21.6439 111.443 22.0508 111.712 22.5781 111.712C23.0957 111.712 23.4977 111.438 23.7842 110.892C24.0739 110.341 24.2188 109.557 24.2188 108.538C24.2188 106.373 23.6898 105.291 22.6318 105.291Z" fill="black"/>
<path d="M17.4688 71V70.6729C17.4688 70.4548 17.4867 70.2594 17.5225 70.0869C17.5583 69.9111 17.612 69.75 17.6836 69.6035C17.7585 69.457 17.8496 69.3203 17.957 69.1934C18.0677 69.0632 18.1947 68.9346 18.3379 68.8076C18.4844 68.6774 18.6488 68.5456 18.8311 68.4121C19.0166 68.2754 19.2184 68.1273 19.4365 67.9678C19.6481 67.8148 19.8451 67.6634 20.0273 67.5137C20.2129 67.3639 20.374 67.2028 20.5107 67.0303C20.6475 66.8577 20.7549 66.6689 20.833 66.4639C20.9144 66.2555 20.9551 66.0179 20.9551 65.751C20.9551 65.2887 20.8265 64.9307 20.5693 64.6768C20.3154 64.4196 19.9574 64.291 19.4951 64.291C19.1826 64.291 18.8815 64.3594 18.5918 64.4961C18.3021 64.6328 18.0189 64.8232 17.7422 65.0674V64.54C18.0091 64.335 18.2972 64.1738 18.6064 64.0566C18.9157 63.9395 19.238 63.8809 19.5732 63.8809C19.8532 63.8809 20.1071 63.9232 20.335 64.0078C20.5628 64.0924 20.7565 64.2129 20.916 64.3691C21.0788 64.5254 21.2041 64.7142 21.292 64.9355C21.3799 65.1569 21.4238 65.4043 21.4238 65.6777C21.4238 66 21.3766 66.2865 21.2822 66.5371C21.1911 66.7845 21.0658 67.0107 20.9062 67.2158C20.7467 67.4176 20.5596 67.6048 20.3447 67.7773C20.1331 67.9466 19.9085 68.1159 19.6709 68.2852C19.3551 68.5098 19.0882 68.71 18.8701 68.8857C18.652 69.0583 18.4746 69.2275 18.3379 69.3936C18.2012 69.5596 18.1019 69.7305 18.04 69.9062C17.9814 70.082 17.9521 70.2855 17.9521 70.5166V70.5898H21.4336V71H17.4688ZM22.9375 70.8584V70.3408C23.3867 70.5882 23.8327 70.7119 24.2754 70.7119C24.8483 70.7119 25.2959 70.554 25.6182 70.2383C25.9404 69.9225 26.1016 69.5026 26.1016 68.9785C26.1016 67.8392 25.4521 67.2695 24.1533 67.2695C23.8604 67.2695 23.5251 67.2891 23.1475 67.3281L23.3574 63.998H26.2725V64.4082H23.7578L23.5967 66.8984C23.932 66.8724 24.1729 66.8594 24.3193 66.8594C25.0583 66.8594 25.6182 67.0417 25.999 67.4062C26.3799 67.7676 26.5703 68.2721 26.5703 68.9199C26.5703 69.5742 26.3685 70.1048 25.9648 70.5117C25.5612 70.9186 24.985 71.1221 24.2363 71.1221C23.7448 71.1221 23.3118 71.0342 22.9375 70.8584Z" fill="black"/>
<path d="M17.7812 21.8584V21.3408C18.2305 21.5882 18.6764 21.7119 19.1191 21.7119C19.6921 21.7119 20.1396 21.554 20.4619 21.2383C20.7842 20.9225 20.9453 20.5026 20.9453 19.9785C20.9453 18.8392 20.2959 18.2695 18.9971 18.2695C18.7041 18.2695 18.3688 18.2891 17.9912 18.3281L18.2012 14.998H21.1162V15.4082H18.6016L18.4404 17.8984C18.7757 17.8724 19.0166 17.8594 19.1631 17.8594C19.902 17.8594 20.4619 18.0417 20.8428 18.4062C21.2236 18.7676 21.4141 19.2721 21.4141 19.9199C21.4141 20.5742 21.2122 21.1048 20.8086 21.5117C20.4049 21.9186 19.8288 22.1221 19.0801 22.1221C18.5885 22.1221 18.1556 22.0342 17.7812 21.8584ZM24.6758 22.1221C24.0312 22.1221 23.5267 21.8258 23.1621 21.2334C22.7975 20.641 22.6152 19.7799 22.6152 18.6504C22.6152 17.4036 22.8057 16.4645 23.1865 15.833C23.5706 15.1982 24.1175 14.8809 24.8271 14.8809C26.1748 14.8809 26.8486 16.0771 26.8486 18.4697C26.8486 19.6611 26.6582 20.5677 26.2773 21.1895C25.8965 21.8112 25.3626 22.1221 24.6758 22.1221ZM24.7881 15.291C24.251 15.291 23.8327 15.5661 23.5332 16.1162C23.2337 16.6663 23.084 17.4915 23.084 18.5918C23.084 19.5944 23.2272 20.3659 23.5137 20.9062C23.8001 21.4434 24.207 21.7119 24.7344 21.7119C25.252 21.7119 25.654 21.4385 25.9404 20.8916C26.2301 20.3415 26.375 19.557 26.375 18.5381C26.375 16.3734 25.846 15.291 24.7881 15.291Z" fill="black"/>
<line x1="32.5" y1="8" x2="32.5" y2="116" stroke="#B18FF3"/>
<line x1="10.0016" y1="115.5" x2="323.002" y2="116.472" stroke="#B18FF3"/>
<rect x="106" y="78" width="20" height="38" fill="#C837AB"/>
<rect x="106" y="78" width="20" height="38" fill="url(#paint0_radial_80_40198)" fill-opacity="0.2"/>
<rect x="106" y="78" width="20" height="38" fill="url(#paint1_radial_80_40198)"/>
<defs>
<radialGradient id="paint0_radial_80_40198" cx="0" cy="0" r="1" gradientUnits="userSpaceOnUse" gradientTransform="translate(111.5 78) rotate(96.7098) scale(17.1172 9.00908)">
<stop stop-color="#3F4ED2"/>
<stop offset="1" stop-color="#3946BF" stop-opacity="0"/>
</radialGradient>
<radialGradient id="paint1_radial_80_40198" cx="0" cy="0" r="1" gradientUnits="userSpaceOnUse" gradientTransform="translate(113 109.5) rotate(-109.179) scale(24.3516 19.0148)">
<stop stop-color="#FFCE7C"/>
<stop offset="1" stop-color="#409CCF" stop-opacity="0"/>
</radialGradient>
</defs>
</svg>
